<svg width="29.3" height="24" xmlns="http://www.w3.org/2000/svg" version="1.1">
 <title>logo</title>
 <defs>
  <linearGradient id="linearGradient-1" y2="43.553289%" x2="109.212038%" y1="55.6311149%" x1="33.1725633%">
   <stop offset="0%" stop-color="#02AAFF"/>
   <stop offset="100%" stop-color="#06DEC6"/>
  </linearGradient>
  <linearGradient id="linearGradient-2" y2="91.7216748%" x2="66.050149%" y1="47.1250646%" x1="19.0933016%">
   <stop offset="0%" stop-color="#C0CFFF"/>
   <stop offset="23.0855968%" stop-color="#718DEA"/>
   <stop offset="80.5655499%" stop-color="#5E7CE0"/>
   <stop offset="100%" stop-color="#001030"/>
  </linearGradient>
  <linearGradient id="linearGradient-4" y2="24.6088283%" x2="78.6216974%" y1="100%" x1="33.392937%">
   <stop offset="0%" stop-color="#02AAFF"/>
   <stop offset="100%" stop-color="#06DEC6"/>
  </linearGradient>
  <linearGradient id="svg_1" y2="NaN" x2="NaN" y1="NaN" x1="NaN">
   <stop offset="0%" stop-color="#C0CFFF"/>
   <stop offset="23.0855968%" stop-color="#718DEA"/>
   <stop offset="76.4470077%" stop-color="#5E7CE0"/>
   <stop offset="100%" stop-color="#001030"/>
  </linearGradient>
 </defs>
 <g>
  <title>Layer 1</title>
  <g fill-rule="evenodd" fill="none" id="logo">
   <g id="编组-43备份-14">
    <path fill="url(#linearGradient-1)" id="矩形备份-12" d="m6.87682,2.44743l5.34413,0c1.32817,0 2.40486,0.92987 2.40486,2.07693c0,1.14705 -1.07669,2.07692 -2.40486,2.07692l-5.34413,0c-1.32817,0 -2.40486,-0.92987 -2.40486,-2.07692c0,-1.14706 1.07669,-2.07693 2.40486,-2.07693z"/>
    <path fill="url(#linearGradient-2)" id="形状结合" d="m10.76287,2.44743c-0.54854,0.14698 -0.98667,0.51388 -1.25324,0.96769l-4.95629,8.58231l3.17,5.489l3.11327,0.00008c1.14705,0 2.07693,0.92987 2.07693,2.07692c0,1.14706 -0.92988,2.07693 -2.07693,2.07693l-4.23303,0c-0.28362,0 -0.55397,-0.05686 -0.80026,-0.15978c-0.4478,-0.15956 -0.84364,-0.47321 -1.10013,-0.91747l-4.26923,-7.39452c-0.04534,-0.07852 -0.08496,-0.15877 -0.119,-0.24027c-0.30885,-0.6057 -0.31436,-1.35086 0.05099,-1.98368l4.34427,-7.52952l0.03733,-0.06213c0.25536,-0.40886 0.65277,-0.73027 1.14525,-0.88288l0.07854,-0.02268l4.79153,0z"/>
    <path fill="url(#svg_1)" id="形状结合备份" d="m18.48888,21.64026c0.54854,-0.14698 0.98667,-0.51388 1.25324,-0.9677l4.9563,-8.5823l-4.4395,-7.68787c-0.57352,-0.99338 -0.23317,-2.2636 0.76021,-2.83713c0.99338,-0.57353 2.2636,-0.23317 2.83713,0.76021l4.96154,8.59363c0.04533,0.07852 0.08495,0.15877 0.119,0.24026c0.30885,0.60571 0.31436,1.35087 -0.051,1.98369l-4.34427,7.52951l-0.03732,0.06214c-0.25536,0.40886 -0.65277,0.73027 -1.14525,0.88288l-0.07855,0.02268l-4.79153,0z"/>
    <path fill="url(#linearGradient-4)" id="路径" d="m12.6458,23.33986l-0.04437,0.05035c-0.29999,0.32884 -0.69748,0.53645 -1.13595,0.55638l-0.06956,0.00158c-3.65522,0 -5.32172,0 -4.99951,0c0.48331,0 0.92132,-0.22792 1.24041,-0.59728l13.37745,-22.60283l0.04437,-0.05036c0.29998,-0.32884 0.69747,-0.53644 1.13594,-0.55638l0.06957,-0.00158l4.99951,0c-0.48332,0 -0.92132,0.22792 -1.24042,0.59728l-13.37744,22.60284z"/>
   </g>
   <path fill-rule="nonzero" fill="#333333" id="CodeHub" d="m43.36735,19.37974c2.3,0 3.88,-0.88 5.12,-2.9c0.06,-0.12 0.04,-0.2 -0.06,-0.28l-2.36,-1.32c-0.12,-0.06 -0.22,0 -0.3,0.14c-0.48,0.8 -1.06,1.34 -1.92,1.34c-0.92,0 -1.44,-0.62 -1.44,-1.58c0,-1 0.6,-4.32 1,-5.16c0.4,-0.8 1,-1.3 1.84,-1.3c0.9,0 1.3,0.5 1.5,1.32c0.02,0.14 0.12,0.18 0.28,0.12l2.62,-1.06c0.14,-0.06 0.18,-0.14 0.14,-0.26c-0.44,-1.96 -1.88,-3.14 -4.18,-3.14c-2.46,0 -4.22,1.02 -5.28,3.2c-0.78,1.56 -1.34,5.28 -1.34,6.6c0,2.78 1.8,4.28 4.38,4.28zm10.3,0c2.1,0 3.76,-0.76 4.72,-2.7c0.54,-1.1 0.8,-2.78 0.8,-3.9c0,-2.36 -1.54,-3.62 -3.84,-3.62c-2.1,0 -3.76,0.76 -4.72,2.7c-0.54,1.1 -0.8,2.78 -0.8,3.9c0,2.36 1.54,3.62 3.84,3.62zm0.4,-2.66c-0.74,0 -1.02,-0.42 -1.02,-1.18c0,-0.58 0.3,-2.24 0.58,-2.84c0.32,-0.62 0.76,-0.88 1.32,-0.88c0.72,0 1.02,0.42 1.02,1.18c0,0.58 -0.3,2.24 -0.58,2.84c-0.32,0.62 -0.76,0.88 -1.32,0.88zm8.74,2.66c1.18,0 2.08,-0.48 2.62,-1.18l0.02,0l-0.12,0.74c-0.02,0.12 0.04,0.2 0.16,0.2l2.84,0c0.12,0 0.2,-0.08 0.22,-0.2l2.34,-13.2c0.02,-0.12 -0.06,-0.2 -0.18,-0.2l-2.86,0c-0.1,0 -0.18,0.08 -0.2,0.2l-0.82,4.62l-0.02,0c-0.28,-0.66 -1.02,-1.2 -2.24,-1.2c-1.58,0 -2.68,0.62 -3.44,2.16c-0.62,1.26 -1.06,3.56 -1.06,4.88c0,1.98 0.84,3.18 2.74,3.18zm1.6,-2.66c-0.72,0 -1.02,-0.44 -1.02,-1.2c0,-0.62 0.32,-2.28 0.58,-2.82c0.3,-0.6 0.72,-0.88 1.32,-0.88c0.72,0 1.02,0.44 1.02,1.2c0,0.62 -0.32,2.28 -0.58,2.82c-0.3,0.6 -0.72,0.88 -1.32,0.88zm10.42,2.66c1.9,0 3.22,-0.6 4.34,-1.6c0.1,-0.08 0.1,-0.22 0.04,-0.32l-1.1,-1.4c-0.06,-0.08 -0.14,-0.1 -0.28,-0.02c-0.68,0.52 -1.48,0.86 -2.26,0.86c-1.04,0 -1.66,-0.38 -1.66,-1.34c0,-0.08 0,-0.16 0.02,-0.24c0.02,-0.08 0.06,-0.12 0.14,-0.12l5.62,0c0.12,0 0.22,-0.08 0.24,-0.2c0.2,-1.16 0.26,-1.84 0.26,-2.38c0,-2.24 -1.6,-3.46 -3.8,-3.46c-2.32,0 -3.84,0.9 -4.72,2.74c-0.54,1.08 -0.8,2.66 -0.8,3.88c0,2.4 1.56,3.6 3.96,3.6zm2.16,-6.16l-2.56,0c-0.08,0 -0.1,-0.04 -0.08,-0.12c0.04,-0.26 0.1,-0.5 0.18,-0.7c0.3,-0.58 0.82,-0.92 1.5,-0.92c0.74,0 1.18,0.36 1.18,1.16c0,0.12 -0.02,0.3 -0.06,0.46c-0.02,0.08 -0.08,0.12 -0.16,0.12zm7.12,5.92c0.12,0 0.18,-0.08 0.2,-0.2l0.9,-5.06c0.02,-0.08 0.06,-0.12 0.12,-0.12l3.6,0c0.08,0 0.12,0.04 0.1,0.12l-0.9,5.06c-0.02,0.12 0.06,0.2 0.18,0.2l3,0c0.12,0 0.2,-0.08 0.22,-0.2l2.34,-13.2c0.02,-0.12 -0.06,-0.2 -0.18,-0.2l-3,0c-0.12,0 -0.2,0.08 -0.22,0.2l-0.86,4.88c-0.02,0.08 -0.06,0.12 -0.14,0.12l-3.6,0c-0.06,0 -0.1,-0.04 -0.08,-0.12l0.86,-4.88c0.02,-0.12 -0.04,-0.2 -0.16,-0.2l-3,0c-0.12,0 -0.2,0.08 -0.22,0.2l-2.34,13.2c-0.02,0.12 0.06,0.2 0.18,0.2l3,0zm12.44,0.24c1.16,0 2.04,-0.48 2.64,-1.18l0.02,0l-0.14,0.74c-0.02,0.12 0.06,0.2 0.16,0.2l2.86,0c0.12,0 0.2,-0.08 0.22,-0.2l1.64,-9.34c0.02,-0.12 -0.04,-0.2 -0.16,-0.2l-2.86,0c-0.12,0 -0.2,0.08 -0.22,0.2l-0.98,5.6c-0.16,0.94 -0.66,1.48 -1.4,1.48c-0.76,0 -1.04,-0.58 -0.88,-1.48l0.98,-5.6c0.02,-0.12 -0.06,-0.2 -0.18,-0.2l-2.82,0c-0.12,0 -0.2,0.08 -0.22,0.2l-1.08,6.14c-0.4,2.16 0.26,3.64 2.42,3.64zm13.46,0c1.6,0 2.7,-0.64 3.46,-2.16c0.62,-1.28 1.06,-3.56 1.06,-4.88c0,-1.98 -0.86,-3.18 -2.74,-3.18c-1.18,0 -2.08,0.48 -2.62,1.18l-0.02,0l0.82,-4.6c0.02,-0.12 -0.06,-0.2 -0.18,-0.2l-2.86,0c-0.1,0 -0.18,0.08 -0.2,0.2l-2.34,13.2c-0.02,0.12 0.06,0.2 0.16,0.2l2.86,0c0.12,0 0.2,-0.08 0.22,-0.2l0.14,-0.74l0.02,0c0.28,0.66 1,1.18 2.22,1.18zm-0.7,-2.66c-0.72,0 -1.02,-0.44 -1.02,-1.2c0,-0.62 0.32,-2.28 0.58,-2.82c0.3,-0.6 0.72,-0.88 1.32,-0.88c0.72,0 1.02,0.44 1.02,1.2c0,0.62 -0.32,2.28 -0.58,2.82c-0.3,0.6 -0.72,0.88 -1.32,0.88z"/>
  </g>
 </g>
</svg>