<?xml version="1.0" standalone="no"?>
<!DOCTYPE svg PUBLIC "-//W3C//DTD SVG 20010904//EN"
 "http://www.w3.org/TR/2001/REC-SVG-20010904/DTD/svg10.dtd">
<svg version="1.0" xmlns="http://www.w3.org/2000/svg"
 width="980.000000pt" height="980.000000pt" viewBox="0 0 980.000000 980.000000"
 preserveAspectRatio="xMidYMid meet">

<g transform="translate(0.000000,980.000000) scale(0.100000,-0.100000)"
fill="#000000" stroke="none">
<path d="M4560 9789 c-1035 -75 -1998 -463 -2800 -1128 -150 -123 -501 -475
-622 -621 -881 -1068 -1270 -2403 -1098 -3765 119 -934 501 -1801 1124 -2545
98 -117 370 -393 496 -504 1328 -1166 3158 -1531 4825 -962 895 305 1700 879
2281 1627 735 946 1100 2126 1024 3314 -57 893 -353 1748 -856 2475 -393 569
-925 1069 -1509 1419 -628 376 -1287 596 -2025 676 -174 19 -664 27 -840 14z
m840 -524 c414 -51 753 -137 1120 -282 709 -280 1341 -750 1820 -1352 459
-577 769 -1272 890 -1996 48 -285 55 -384 55 -745 -1 -349 -9 -459 -56 -734
-123 -726 -435 -1419 -902 -2004 -91 -114 -306 -352 -318 -352 -5 0 -9 18 -9
40 l0 40 -325 0 -325 0 0 2845 0 2844 -462 391 c-255 214 -468 390 -475 390
-11 0 -2984 -1074 -3060 -1106 l-33 -13 0 -135 c0 -82 4 -136 10 -136 8 0
2741 889 2786 907 12 4 14 -430 14 -3196 l0 -3201 755 -2 756 -3 -88 -66
c-565 -424 -1211 -706 -1885 -824 -248 -43 -385 -56 -673 -62 -485 -10 -887
42 -1334 172 -616 179 -1269 546 -1710 961 l-81 76 2 2030 3 2031 150 47 c188
60 823 263 1590 508 l590 188 3 -2528 2 -2528 605 0 605 0 -2 2571 -3 2572
-405 238 c-223 131 -412 239 -420 239 -8 0 -715 -244 -1570 -543 l-1555 -543
-5 -1916 -5 -1916 -76 102 c-473 632 -761 1373 -851 2181 -17 161 -17 729 0
890 114 1028 549 1941 1267 2660 616 616 1399 1035 2253 1204 135 27 360 59
492 71 159 13 711 4 860 -15z"/>
<path d="M3585 5815 c-104 -35 -432 -143 -727 -240 l-538 -176 0 -330 c0 -181
2 -329 5 -329 6 0 1327 351 1413 376 l52 15 0 374 c0 206 -3 375 -7 374 -5 0
-93 -29 -198 -64z"/>
<path d="M3045 4453 c-396 -101 -721 -186 -723 -187 -1 -2 -1 -144 0 -318 l3
-314 707 137 c388 75 718 139 732 143 l26 6 0 360 c0 282 -3 360 -12 359 -7
-1 -337 -84 -733 -186z"/>
<path d="M3050 3290 c-393 -65 -718 -119 -722 -119 -5 -1 -8 -141 -8 -312 l0
-312 53 6 c28 3 349 33 712 67 363 33 670 63 683 66 l22 4 0 360 c0 282 -3
360 -12 359 -7 -1 -335 -54 -728 -119z"/>
<path d="M3028 2166 l-708 -50 0 -328 0 -328 735 0 735 0 0 380 0 380 -27 -1
c-16 -1 -346 -25 -735 -53z"/>
</g>
</svg>
