<?xml version="1.0" encoding="UTF-8"?>
<svg width="72px" height="72px" viewBox="0 0 72 72" version="1.1" xmlns="http://www.w3.org/2000/svg" xmlns:xlink="http://www.w3.org/1999/xlink">
    <title>logo_gitee_g_white@1x</title>
    <g id="LOGO" stroke="none" stroke-width="1" fill="none" fill-rule="evenodd">
        <g id="Artboard-7" transform="translate(-192.000000, -239.000000)" fill="#FFFFFF">
            <path d="M228,239 C247.882251,239 264,255.117749 264,275 C264,294.882251 247.882251,311 228,311 C208.117749,311 192,294.882251 192,275 C192,255.117749 208.117749,239 228,239 Z M246.223335,255 C246.222967,255 246.2226,255 246.222232,255.001102 L221.33326,255.001102 C213.969504,255.001102 208,260.970606 208,268.334362 L208,293.222232 C208,294.204066 208.795934,295 209.777768,295 L236.000329,295 C242.627564,295 248,289.627564 248,283.000329 L248,272.778425 C248,271.796591 247.204066,271.000657 246.222232,271.000657 L225.7779,271.000657 C224.796248,271.001123 224.000389,271.796773 223.999667,272.778425 L223.998503,277.222667 C223.997802,278.155409 224.715909,278.920565 225.629522,278.994969 L225.775805,279.00042 L225.775805,279.00042 L238.222276,279.000317 C239.155019,279.000295 239.919992,279.718618 239.994164,280.63225 L240.000044,280.77807 L240.000044,280.77807 L240.000044,281.666909 C240.000044,284.612411 237.612243,287.000213 234.66674,287.000213 L217.776621,287.000213 C216.794928,287.000164 215.999101,286.204358 215.999025,285.222665 L215.998559,268.334184 C215.998337,265.462319 218.268172,263.120556 221.111731,263.005187 L221.331716,263.00088 L221.331716,263.00088 L246.21727,263.00088 C247.198674,262.999777 247.994429,262.204515 247.996141,261.223112 L247.998897,256.77887 C248.000609,255.797037 247.205169,255.000609 246.223335,255 Z" id="logo_gitee_g_white"></path>
        </g>
    </g>
</svg>