<?xml version="1.0" encoding="UTF-8" standalone="no"?>
<!DOCTYPE svg PUBLIC "-//W3C//DTD SVG 1.1//EN" "http://www.w3.org/Graphics/SVG/1.1/DTD/svg11.dtd">
<svg xmlns="http://www.w3.org/2000/svg" version="1.1" viewBox="0 0 800 673">
<path fill="#c80f2d" d="
  M 423.25 448.95
  Q 421.93 447.43 421.69 444.83
  C 413.81 360.06 408.95 274.04 414.94 188.97
  C 419.45 124.83 428.90 59.06 458.05 0.69
  A 0.84 0.83 19.5 0 1 458.99 0.25
  Q 476.21 4.08 493.43 7.83
  C 544.62 18.97 582.77 63.18 582.75 116.22
  C 582.74 144.20 576.40 171.74 566.31 198.15
  Q 549.53 242.04 527.23 283.46
  Q 481.23 368.94 425.63 448.82
  A 1.52 1.51 41.7 0 1 423.25 448.95
  Z"
/>
<path fill="#c80f2d" d="
  M 378.89 125.98
  C 387.52 187.47 389.03 252.95 387.01 316.99
  Q 384.97 381.65 378.38 446.01
  C 378.31 446.73 377.93 447.65 377.75 448.40
  Q 377.65 448.86 377.24 449.10
  Q 375.61 450.09 374.50 448.49
  C 327.44 380.55 283.37 308.88 248.73 233.74
  C 230.68 194.57 216.43 152.88 217.78 109.50
  C 218.88 74.07 243.28 37.24 273.76 20.22
  C 289.36 11.52 307.52 7.19 324.25 4.05
  Q 324.79 3.95 328.02 2.94
  C 329.86 2.36 331.50 2.62 333.26 2.06
  Q 336.59 1.00 340.08 0.53
  Q 340.58 0.46 340.93 0.84
  C 342.38 2.43 343.65 3.72 344.63 5.70
  C 363.27 43.24 373.01 84.08 378.89 125.98
  Z"
/>
<path fill="#c80f2d" d="
  M 112.65 118.10
  C 114.92 115.66 118.47 111.58 121.72 108.56
  A 1.29 1.29 0.0 0 1 123.59 108.68
  Q 133.17 120.26 142.36 132.40
  C 220.90 236.20 289.49 348.12 344.08 466.36
  Q 345.19 468.77 342.64 469.35
  A 2.32 2.30 -38.0 0 1 341.11 469.17
  Q 258.78 428.49 181.46 379.82
  Q 149.91 359.95 120.62 336.95
  C 102.41 322.65 84.68 306.73 73.18 286.56
  C 39.26 227.06 71.05 162.78 112.65 118.10
  Z"
/>
<path fill="#c80f2d" d="
  M 676.40 109.03
  A 1.86 1.85 42.1 0 1 679.16 108.89
  C 733.55 163.56 771.84 244.17 708.96 311.20
  C 702.12 318.49 691.58 327.63 682.57 334.78
  Q 653.19 358.11 621.43 378.19
  Q 541.56 428.68 459.53 469.05
  Q 457.78 469.91 456.49 468.64
  Q 456.11 468.26 456.21 467.74
  C 456.35 467.07 456.46 465.66 456.71 465.12
  C 508.91 352.77 573.58 246.27 647.29 146.78
  Q 661.23 127.96 676.40 109.03
  Z"
/>
<path fill="#c80f2d" d="
  M 800.00 348.06
  L 800.00 364.56
  C 799.29 365.85 798.36 367.72 798.22 369.22
  C 792.08 436.68 738.63 490.39 671.96 498.40
  Q 664.56 499.29 652.01 499.34
  Q 567.62 499.65 483.25 499.26
  C 481.10 499.25 474.36 500.35 475.75 496.35
  Q 475.91 495.91 476.29 495.64
  C 509.45 472.90 544.03 451.84 578.68 431.41
  Q 683.92 369.36 791.58 311.41
  A 0.74 0.73 -23.1 0 1 792.63 311.83
  C 796.32 323.67 798.04 335.88 800.00 348.06
  Z"
/>
<path fill="#c80f2d" d="
  M 0.00 366.69
  L 0.00 342.44
  C 1.21 341.36 1.97 340.37 2.15 338.64
  Q 3.50 325.90 7.40 312.82
  A 1.48 1.46 22.4 0 1 9.51 311.95
  C 115.23 368.97 221.77 428.70 321.59 493.64
  C 322.65 494.33 323.72 495.37 324.64 496.24
  Q 325.02 496.59 325.00 497.11
  C 324.95 499.81 318.61 499.49 316.71 499.49
  Q 235.73 499.51 154.75 499.27
  Q 153.91 499.27 153.05 499.30
  C 77.55 502.26 15.11 450.44 2.83 376.32
  C 2.20 372.50 2.51 369.99 0.00 366.69
  Z"
/>
<path fill="#c80f2d" d="
  M 319.87 519.66
  C 322.20 521.77 319.80 523.51 318.17 524.66
  C 286.66 546.84 254.57 568.66 220.52 586.79
  Q 209.84 592.47 198.62 596.97
  C 186.74 601.74 174.59 602.69 161.73 600.24
  C 122.68 592.82 94.65 561.41 75.00 528.93
  A 0.44 0.43 59.4 0 1 75.15 528.33
  L 75.85 527.91
  Q 76.18 527.71 76.57 527.70
  L 319.06 519.36
  Q 319.52 519.35 319.87 519.66
  Z"
/>
<path fill="#c80f2d" d="
  M 479.65 522.28
  A 0.95 0.95 0.0 0 1 479.32 521.36
  Q 479.76 519.22 482.26 519.31
  C 563.09 522.11 643.99 524.45 724.79 528.06
  A 0.53 0.53 0.0 0 1 725.22 528.85
  C 700.38 572.36 649.55 620.07 594.94 594.06
  C 557.19 576.08 521.93 552.77 487.89 528.63
  Q 484.20 526.01 479.65 522.28
  Z"
/>
</svg>
