<?xml version="1.0" standalone="no"?>
<!DOCTYPE svg PUBLIC "-//W3C//DTD SVG 20010904//EN"
 "http://www.w3.org/TR/2001/REC-SVG-20010904/DTD/svg10.dtd">
<svg version="1.0" xmlns="http://www.w3.org/2000/svg"
 width="476.000000pt" height="476.000000pt" viewBox="0 0 476.000000 476.000000"
 preserveAspectRatio="xMidYMid meet">
<metadata>
Created by potrace 1.14, written by Peter Selinger 2001-2017
</metadata>
<g transform="translate(0.000000,476.000000) scale(0.100000,-0.100000)"
fill="#000000" stroke="none">
<path d="M2337 4698 c-83 -117 -568 -336 -1002 -453 -80 -21 -112 -28 -190
-40 -11 -2 -33 -6 -50 -8 -92 -16 -144 -24 -300 -43 -41 -5 -261 -16 -367 -18
-48 -1 -89 -4 -92 -6 -2 -3 -7 -34 -10 -70 -3 -36 -7 -78 -9 -95 -5 -29 -13
-110 -22 -210 -3 -27 -7 -72 -10 -100 -32 -325 -32 -613 -1 -945 3 -30 8 -84
11 -120 10 -111 21 -215 30 -280 9 -60 43 -223 68 -325 3 -11 10 -31 15 -45 5
-14 10 -28 11 -33 4 -28 14 -65 22 -81 6 -10 12 -26 14 -35 10 -45 83 -220
143 -341 52 -105 156 -277 209 -345 13 -16 27 -34 31 -40 4 -5 27 -35 52 -65
25 -30 52 -63 60 -73 66 -83 208 -224 320 -320 58 -50 265 -197 277 -197 6 0
18 -9 28 -20 10 -11 24 -20 32 -20 7 0 13 -4 13 -10 0 -5 4 -10 9 -10 5 0 44
-20 85 -45 42 -25 79 -45 82 -45 3 0 18 -9 32 -19 15 -10 30 -19 35 -20 8 -1
90 -42 142 -71 19 -11 36 -19 38 -18 1 0 24 -9 51 -20 27 -12 52 -22 57 -22 5
0 9 -5 9 -11 0 -5 4 -8 9 -4 9 5 65 -13 116 -36 59 -27 108 -25 205 9 52 18
104 37 115 42 11 4 72 29 135 55 144 59 243 106 252 119 4 6 8 8 8 4 0 -9 234
131 238 143 2 5 8 9 13 9 9 0 119 71 146 94 16 15 31 26 78 61 102 75 407 380
486 485 80 107 159 226 159 238 0 6 6 17 13 24 14 15 109 200 106 208 -1 3 7
23 19 46 55 108 116 315 148 504 25 148 25 153 40 325 20 231 -3 1492 -30
1632 -5 24 -19 136 -18 143 0 3 -4 10 -9 17 -12 14 -31 11 -112 -17 -33 -12
-62 -18 -65 -16 -3 3 -12 0 -20 -6 -18 -15 -207 -15 -282 0 -30 6 -71 14 -90
17 -19 3 -43 8 -53 11 -11 3 -29 7 -40 9 -12 2 -31 6 -43 8 -31 8 -285 59
-314 63 -34 6 -53 10 -135 28 -38 9 -79 18 -90 20 -34 7 -229 77 -241 87 -6 5
-74 41 -150 79 -77 39 -159 88 -184 111 -25 22 -58 50 -74 62 -15 12 -44 35
-63 51 -47 40 -64 39 -96 -6z"/>
</g>
</svg>
